<?xml version="1.0" standalone="no"?>
<!DOCTYPE svg PUBLIC "-//W3C//DTD SVG 20010904//EN"
 "http://www.w3.org/TR/2001/REC-SVG-20010904/DTD/svg10.dtd">
<svg version="1.0" xmlns="http://www.w3.org/2000/svg"
 width="90.000000pt" height="90.000000pt" viewBox="0 0 90.000000 90.000000"
 preserveAspectRatio="xMidYMid meet">

<g transform="translate(0.000000,90.000000) scale(0.100000,-0.100000)"
fill="#000000" stroke="none">
<path d="M256 794 c-97 -31 -161 -93 -185 -180 -37 -135 17 -212 249 -353 66
-40 133 -88 149 -108 40 -48 61 -42 83 27 21 70 22 115 2 178 -15 46 -15 52 1
86 25 52 71 84 136 93 49 8 54 11 54 33 0 21 -5 26 -32 28 -50 5 -111 -16
-152 -53 l-38 -34 -34 17 c-65 33 -48 74 38 93 41 10 58 19 66 36 13 29 29 29
92 -1 55 -26 78 -47 94 -89 7 -17 18 -27 31 -27 32 0 36 29 10 77 -31 59 -94
98 -189 118 -42 9 -85 21 -96 27 -60 34 -86 42 -155 45 -48 2 -92 -3 -124 -13z
m189 -134 c0 -18 -6 -26 -23 -28 -24 -4 -38 18 -28 44 3 9 15 14 28 12 17 -2
23 -10 23 -28z"/>
</g>
</svg>
